# xmcd CD database file
#
# Track frame offsets:
#	150
#	21861
#	42687
#	61234
#	76532
#	94668
#	109862
#	142810
#	163171
#	177765
#	198418
#	212584
#
# Disc length: 3068 seconds
#
# Revision: 0
# Processed by: cddbd v1.5.2PL0 Copyright (c) Steve Scherf et al.
# Submitted via: CDex 1.51
#
DISCID=990bfa0c
DTITLE=Bob Malone - Mojo Deluxe
DYEAR=2015
DGENRE=Blues
TTITLE0=Certain Distance
TTITLE1=Toxic Love
TTITLE2=Hard TImes [Ray Charles]
TTITLE3=I'm Not Fine
TTITLE4=Paris
TTITLE5=Looking For The Blues
TTITLE6=Rage and Cigarettes
TTITLE7=She Moves Me
TTITLE8=Don't Threaten Me (With A Good Time)
TTITLE9=Watching Over Me
TTITLE10=Chinese Algebra
TTITLE11=Can't Get There From Here
EXTD=YEAR: 2015
EXTT0=
EXTT1=
EXTT2=
EXTT3=
EXTT4=
EXTT5=
EXTT6=
EXTT7=
EXTT8=
EXTT9=
EXTT10=
EXTT11=
PLAYORDER=
